<svg xmlns="http://www.w3.org/2000/svg" width="53" height="55" viewBox="0 0 53 55">
    <g fill="none" fill-rule="evenodd">
        <g>
            <g>
                <g transform="translate(-45 -30) translate(45 30) translate(0 .693)">
                    <ellipse cx="26.5" cy="26.807" rx="26.5" ry="26.807"/>
                    <g fill-rule="nonzero">
                        <path fill="#23013E" d="M44.74 13.291c-1.906-1-3.589-1.32-5.186-1.337-2.732-.029-5.145-1.863-6.038-4.52-.522-1.553-1.374-3.122-2.948-4.742-3.262-3.358-8.552-3.358-11.814 0-1.514 1.558-2.33 3.103-2.839 4.665-.873 2.665-3.311 4.461-6.043 4.515-1.598.032-3.31.38-5.293 1.419C.467 15.448-1.166 20.626.927 24.858c.971 1.962 2.15 3.24 3.434 4.22 2.194 1.677 3.098 4.62 2.303 7.312-.465 1.574-.672 3.357-.322 5.622.722 4.691 5.002 7.89 9.56 7.148 2.114-.345 3.657-1.102 4.96-2.056 2.229-1.628 5.226-1.607 7.467.003 1.31.94 2.893 1.695 5.093 2.053 4.558.743 8.838-2.457 9.56-7.148.335-2.176.112-3.922-.366-5.491-.818-2.684.13-5.614 2.311-7.309 1.275-.991 2.46-2.31 3.472-4.351 2.089-4.237.452-9.415-3.659-11.57z" transform="translate(1.828 2.31)"/>
                        <path fill="#1BCED8" d="M22.545 13.43c5.753 1.51 11.396-1.478 17.009-1.478-2.732-.03-5.145-1.863-6.038-4.52-.522-1.554-1.374-3.123-2.948-4.743-3.262-3.357-8.552-3.357-11.814 0-3.184 3.46-1.218 9.426 3.791 10.741z" transform="translate(1.828 2.31)"/>
                        <path fill="#FFDD40" d="M12.02 24.46c3.17-5.165 2.155-11.613 3.89-17.106-.873 2.665-3.311 4.461-6.044 4.515-1.597.032-3.308.38-5.293 1.42C.463 15.445-1.17 20.623.922 24.854c2.215 4.184 8.337 4.104 11.097-.395z" transform="translate(1.828 2.31)"/>
                        <path fill="#FF6A39" d="M18.961 38.173c-3.791-4.7-10.063-5.7-14.603-9.094 2.194 1.676 3.098 4.62 2.304 7.311-.465 1.574-.673 3.357-.322 5.622.722 4.691 5.002 7.89 9.56 7.148 4.547-.877 6.362-6.894 3.061-10.987z" transform="translate(1.828 2.31)"/>
                        <path fill="#8049A9" d="M33.775 35.615C28.26 37.874 25.4 43.704 20.86 47.099c2.228-1.628 5.225-1.607 7.467.002 1.308.941 2.893 1.695 5.092 2.053 4.558.744 8.838-2.456 9.56-7.148.595-4.72-4.402-8.359-9.204-6.391z" transform="translate(1.828 2.31)"/>
                        <path fill="#FF375E" d="M35.99 20.324c.382 6.098 4.888 10.7 6.62 16.194-.818-2.684.13-5.613 2.312-7.308 1.275-.992 2.46-2.31 3.472-4.352 2.094-4.232.46-9.41-3.651-11.567-4.182-2.045-9.087 1.722-8.752 7.033z" transform="translate(1.828 2.31)"/>
                    </g>
                </g>
            </g>
        </g>
    </g>
</svg>
